<svg width="117" height="48" viewBox="0 0 117 48" fill="none" xmlns="http://www.w3.org/2000/svg">
<path d="M9.864 34.432C7.656 34.432 5.772 33.64 4.212 32.056C2.652 30.448 1.872 28.228 1.872 25.396C1.872 22.564 2.64 20.344 4.176 18.736C5.736 17.104 7.476 16.288 9.396 16.288C11.436 16.288 13.044 16.984 14.22 18.376C15.42 19.768 16.02 21.736 16.02 24.28C16.02 24.496 16.008 24.712 15.984 24.928C15.984 25.144 15.972 25.36 15.948 25.576H3.492C3.516 27.76 4.116 29.56 5.292 30.976C6.492 32.368 8.064 33.064 10.008 33.064C10.944 33.064 11.784 32.92 12.528 32.632C13.296 32.344 14.004 31.972 14.652 31.516L15.3 32.74C14.604 33.148 13.836 33.532 12.996 33.892C12.156 34.252 11.112 34.432 9.864 34.432ZM3.492 24.28H14.508C14.508 22.072 14.04 20.416 13.104 19.312C12.192 18.208 10.968 17.656 9.432 17.656C7.944 17.656 6.624 18.244 5.472 19.42C4.32 20.596 3.66 22.216 3.492 24.28ZM26.5112 18.088H22.5152V34H20.9312V18.088H18.5552V16.864L20.9312 16.72V12.868C20.9312 9.412 22.3592 7.684 25.2152 7.684C26.0552 7.684 26.8952 7.876 27.7352 8.26L27.3032 9.556C26.6312 9.22 25.9352 9.052 25.2152 9.052C23.4152 9.052 22.5152 10.36 22.5152 12.976V16.72H26.5112V18.088ZM35.9682 18.088H31.9722V34H30.3882V18.088H28.0122V16.864L30.3882 16.72V12.868C30.3882 9.412 31.8162 7.684 34.6722 7.684C35.5122 7.684 36.3522 7.876 37.1922 8.26L36.7602 9.556C36.0882 9.22 35.3922 9.052 34.6722 9.052C32.8722 9.052 31.9722 10.36 31.9722 12.976V16.72H35.9682V18.088ZM44.5613 34.432C41.0813 34.432 39.3413 32.224 39.3413 27.808V16.72H40.9253V27.592C40.9253 31.192 42.2333 32.992 44.8493 32.992C45.8813 32.992 46.8173 32.716 47.6573 32.164C48.4973 31.588 49.4213 30.688 50.4293 29.464V16.72H52.0133V34H50.6813L50.5013 31.12H50.4293C49.5893 32.104 48.7013 32.908 47.7653 33.532C46.8293 34.132 45.7613 34.432 44.5613 34.432ZM62.8239 34.432C61.5519 34.432 60.3639 34.204 59.2599 33.748C58.1799 33.268 57.2559 32.704 56.4879 32.056L57.4239 30.868C58.1679 31.468 58.9599 31.984 59.7999 32.416C60.6399 32.848 61.6839 33.064 62.9319 33.064C64.2759 33.064 65.2959 32.728 65.9919 32.056C66.6879 31.36 67.0359 30.556 67.0359 29.644C67.0359 28.564 66.5799 27.748 65.6679 27.196C64.7559 26.644 63.8079 26.188 62.8239 25.828C61.5039 25.372 60.2559 24.808 59.0799 24.136C57.9039 23.464 57.3159 22.384 57.3159 20.896C57.3159 19.648 57.7959 18.568 58.7559 17.656C59.7159 16.744 61.0959 16.288 62.8959 16.288C63.8079 16.288 64.6959 16.456 65.5599 16.792C66.4479 17.128 67.2039 17.56 67.8279 18.088L66.9639 19.204C66.3879 18.772 65.7759 18.412 65.1279 18.124C64.4799 17.812 63.7119 17.656 62.8239 17.656C61.4799 17.656 60.4959 17.98 59.8719 18.628C59.2479 19.276 58.9359 19.996 58.9359 20.788C58.9359 21.772 59.3559 22.504 60.1959 22.984C61.0359 23.464 61.9719 23.896 63.0039 24.28C63.8919 24.616 64.7679 24.976 65.6319 25.36C66.5199 25.744 67.2399 26.26 67.7919 26.908C68.3679 27.556 68.6559 28.444 68.6559 29.572C68.6559 30.868 68.1519 32.008 67.1439 32.992C66.1359 33.952 64.6959 34.432 62.8239 34.432ZM74.0658 12.544C73.6578 12.544 73.3098 12.412 73.0218 12.148C72.7578 11.884 72.6258 11.548 72.6258 11.14C72.6258 10.684 72.7578 10.336 73.0218 10.096C73.3098 9.832 73.6578 9.7 74.0658 9.7C74.4738 9.7 74.8098 9.832 75.0738 10.096C75.3618 10.336 75.5058 10.684 75.5058 11.14C75.5058 11.548 75.3618 11.884 75.0738 12.148C74.8098 12.412 74.4738 12.544 74.0658 12.544ZM73.2378 34V16.72H74.8218V34H73.2378ZM87.7643 34.432C85.7003 34.432 83.8883 33.64 82.3283 32.056C80.7923 30.472 80.0243 28.252 80.0243 25.396C80.0243 22.492 80.7923 20.248 82.3283 18.664C83.8883 17.08 85.7003 16.288 87.7643 16.288C89.8523 16.288 91.6643 17.08 93.2003 18.664C94.7603 20.248 95.5403 22.492 95.5403 25.396C95.5403 28.252 94.7603 30.472 93.2003 32.056C91.6643 33.64 89.8523 34.432 87.7643 34.432ZM87.7643 33.028C89.5163 33.028 90.9683 32.332 92.1203 30.94C93.2963 29.524 93.8843 27.676 93.8843 25.396C93.8843 23.116 93.2963 21.268 92.1203 19.852C90.9683 18.412 89.5163 17.692 87.7643 17.692C86.0123 17.692 84.5603 18.412 83.4083 19.852C82.2563 21.268 81.6803 23.116 81.6803 25.396C81.6803 27.676 82.2563 29.524 83.4083 30.94C84.5603 32.332 86.0123 33.028 87.7643 33.028ZM100.73 34V16.72H102.098L102.242 19.384H102.35C103.238 18.496 104.15 17.764 105.086 17.188C106.022 16.588 107.09 16.288 108.29 16.288C111.77 16.288 113.51 18.496 113.51 22.912V34H111.926V23.128C111.926 21.304 111.614 19.948 110.99 19.06C110.39 18.172 109.382 17.728 107.966 17.728C106.934 17.728 105.998 18.004 105.158 18.556C104.318 19.084 103.37 19.888 102.314 20.968V34H100.73Z" fill="#F2F2F2"/>
<path d="M34.4303 43C34.3457 42.835 34.2843 42.6297 34.2463 42.3843C33.8019 42.8794 33.2243 43.127 32.5133 43.127C31.8405 43.127 31.2819 42.9323 30.8376 42.543C30.3975 42.1536 30.1774 41.6628 30.1774 41.0703C30.1774 40.3424 30.4461 39.7839 30.9836 39.3945C31.5252 39.0052 32.306 38.8084 33.3258 38.8042H34.1701V38.4106C34.1701 38.0933 34.0876 37.8394 33.9225 37.6489C33.7617 37.4585 33.5057 37.3633 33.1545 37.3633C32.8455 37.3633 32.6022 37.4373 32.4245 37.5854C32.251 37.7336 32.1642 37.9367 32.1642 38.1948H30.3297C30.3297 37.797 30.4525 37.4289 30.6979 37.0903C30.9434 36.7518 31.2904 36.4873 31.7389 36.2969C32.1875 36.1022 32.6911 36.0049 33.2497 36.0049C34.096 36.0049 34.7668 36.2186 35.2619 36.646C35.7612 37.0692 36.0109 37.6659 36.0109 38.436V41.4131C36.0151 42.0648 36.1061 42.5578 36.2838 42.8921V43H34.4303ZM32.9132 41.7241C33.1841 41.7241 33.4338 41.6649 33.6623 41.5464C33.8908 41.4237 34.0601 41.2607 34.1701 41.0576V39.877H33.4845C32.5662 39.877 32.0775 40.1943 32.0182 40.8291L32.0119 40.937C32.0119 41.1655 32.0923 41.3538 32.2531 41.502C32.4139 41.6501 32.6339 41.7241 32.9132 41.7241ZM43.5138 41.6479C43.8524 41.6479 44.1274 41.5549 44.339 41.3687C44.5506 41.1825 44.6606 40.9349 44.6691 40.626H46.3893C46.3851 41.0915 46.2581 41.5189 46.0085 41.9082C45.7588 42.2933 45.416 42.5938 44.9801 42.8096C44.5485 43.0212 44.0703 43.127 43.5456 43.127C42.5638 43.127 41.7894 42.8159 41.2223 42.1938C40.6553 41.5675 40.3717 40.7043 40.3717 39.604V39.4834C40.3717 38.4255 40.6532 37.5812 41.216 36.9507C41.7788 36.3201 42.5511 36.0049 43.5329 36.0049C44.3919 36.0049 45.0796 36.2503 45.5959 36.7412C46.1164 37.2279 46.3809 37.8774 46.3893 38.6899H44.6691C44.6606 38.3345 44.5506 38.0467 44.339 37.8267C44.1274 37.6024 43.8481 37.4902 43.5011 37.4902C43.0737 37.4902 42.75 37.6468 42.5299 37.96C42.3141 38.2689 42.2062 38.7725 42.2062 39.4707V39.6611C42.2062 40.3678 42.3141 40.8757 42.5299 41.1846C42.7458 41.4935 43.0737 41.6479 43.5138 41.6479ZM51.4167 43C51.332 42.835 51.2707 42.6297 51.2326 42.3843C50.7882 42.8794 50.2106 43.127 49.4997 43.127C48.8268 43.127 48.2682 42.9323 47.8239 42.543C47.3838 42.1536 47.1637 41.6628 47.1637 41.0703C47.1637 40.3424 47.4324 39.7839 47.9699 39.3945C48.5115 39.0052 49.2923 38.8084 50.3122 38.8042H51.1564V38.4106C51.1564 38.0933 51.0739 37.8394 50.9088 37.6489C50.748 37.4585 50.492 37.3633 50.1408 37.3633C49.8319 37.3633 49.5885 37.4373 49.4108 37.5854C49.2373 37.7336 49.1505 37.9367 49.1505 38.1948H47.3161C47.3161 37.797 47.4388 37.4289 47.6842 37.0903C47.9297 36.7518 48.2767 36.4873 48.7253 36.2969C49.1738 36.1022 49.6774 36.0049 50.236 36.0049C51.0824 36.0049 51.7531 36.2186 52.2482 36.646C52.7476 37.0692 52.9972 37.6659 52.9972 38.436V41.4131C53.0015 42.0648 53.0924 42.5578 53.2702 42.8921V43H51.4167ZM49.8996 41.7241C50.1704 41.7241 50.4201 41.6649 50.6486 41.5464C50.8771 41.4237 51.0464 41.2607 51.1564 41.0576V39.877H50.4709C49.5526 39.877 49.0638 40.1943 49.0046 40.8291L48.9982 40.937C48.9982 41.1655 49.0786 41.3538 49.2394 41.502C49.4002 41.6501 49.6203 41.7241 49.8996 41.7241ZM60.589 39.6294C60.589 40.6873 60.3478 41.5358 59.8654 42.1748C59.3872 42.8096 58.7397 43.127 57.923 43.127C57.229 43.127 56.6683 42.8857 56.2409 42.4033V45.6406H54.4064V36.1318H56.1076L56.1711 36.8047C56.6154 36.2715 57.1951 36.0049 57.9103 36.0049C58.7567 36.0049 59.4147 36.318 59.8844 36.9443C60.3542 37.5706 60.589 38.4339 60.589 39.5342V39.6294ZM58.7546 39.4961C58.7546 38.8571 58.6403 38.3641 58.4118 38.0171C58.1875 37.6701 57.8595 37.4966 57.4279 37.4966C56.8524 37.4966 56.4567 37.7166 56.2409 38.1567V40.9688C56.4652 41.4215 56.8651 41.6479 57.4406 41.6479C58.3166 41.6479 58.7546 40.9307 58.7546 39.4961ZM67.9142 39.6294C67.9142 40.6873 67.673 41.5358 67.1906 42.1748C66.7124 42.8096 66.0649 43.127 65.2482 43.127C64.5542 43.127 63.9935 42.8857 63.5661 42.4033V45.6406H61.7316V36.1318H63.4328L63.4963 36.8047C63.9406 36.2715 64.5203 36.0049 65.2355 36.0049C66.0819 36.0049 66.7399 36.318 67.2096 36.9443C67.6794 37.5706 67.9142 38.4339 67.9142 39.5342V39.6294ZM66.0797 39.4961C66.0797 38.8571 65.9655 38.3641 65.737 38.0171C65.5127 37.6701 65.1847 37.4966 64.7531 37.4966C64.1776 37.4966 63.7819 37.7166 63.5661 38.1567V40.9688C63.7904 41.4215 64.1903 41.6479 64.7658 41.6479C65.6418 41.6479 66.0797 40.9307 66.0797 39.4961ZM72.2179 43.127C71.2108 43.127 70.3898 42.818 69.755 42.2002C69.1245 41.5824 68.8092 40.7593 68.8092 39.731V39.5532C68.8092 38.8634 68.9425 38.2477 69.2091 37.7061C69.4757 37.1602 69.8524 36.7412 70.339 36.4492C70.8299 36.153 71.3885 36.0049 72.0148 36.0049C72.9543 36.0049 73.6927 36.3011 74.2301 36.8936C74.7718 37.486 75.0426 38.326 75.0426 39.4136V40.1626H70.6691C70.7283 40.6112 70.9061 40.9709 71.2023 41.2417C71.5028 41.5125 71.8815 41.6479 72.3385 41.6479C73.0452 41.6479 73.5975 41.3919 73.9953 40.8799L74.8966 41.8892C74.6216 42.2785 74.2492 42.5832 73.7795 42.8032C73.3097 43.019 72.7892 43.127 72.2179 43.127ZM72.0085 37.4902C71.6445 37.4902 71.3483 37.613 71.1198 37.8584C70.8955 38.1038 70.7516 38.4551 70.6881 38.9121H73.2399V38.7661C73.2314 38.3599 73.1214 38.0467 72.9098 37.8267C72.6982 37.6024 72.3978 37.4902 72.0085 37.4902ZM78.026 43H76.1852V33.25H78.026V43ZM81.4792 43H79.6383V33.25H81.4792V43ZM86.9762 43C86.8916 42.835 86.8302 42.6297 86.7921 42.3843C86.3478 42.8794 85.7702 43.127 85.0592 43.127C84.3864 43.127 83.8278 42.9323 83.3835 42.543C82.9434 42.1536 82.7233 41.6628 82.7233 41.0703C82.7233 40.3424 82.992 39.7839 83.5295 39.3945C84.0711 39.0052 84.8519 38.8084 85.8717 38.8042H86.716V38.4106C86.716 38.0933 86.6335 37.8394 86.4684 37.6489C86.3076 37.4585 86.0516 37.3633 85.7004 37.3633C85.3914 37.3633 85.1481 37.4373 84.9704 37.5854C84.7969 37.7336 84.7101 37.9367 84.7101 38.1948H82.8756C82.8756 37.797 82.9984 37.4289 83.2438 37.0903C83.4893 36.7518 83.8363 36.4873 84.2848 36.2969C84.7334 36.1022 85.237 36.0049 85.7956 36.0049C86.6419 36.0049 87.3127 36.2186 87.8078 36.646C88.3071 37.0692 88.5568 37.6659 88.5568 38.436V41.4131C88.561 42.0648 88.652 42.5578 88.8297 42.8921V43H86.9762ZM85.4591 41.7241C85.73 41.7241 85.9796 41.6649 86.2082 41.5464C86.4367 41.4237 86.606 41.2607 86.716 41.0576V39.877H86.0304C85.1121 39.877 84.6234 40.1943 84.5641 40.8291L84.5578 40.937C84.5578 41.1655 84.6382 41.3538 84.799 41.502C84.9598 41.6501 85.1798 41.7241 85.4591 41.7241Z" fill="#56CCF2"/>
</svg>
